<svg width="26" height="25" viewBox="0 0 26 25" fill="none" xmlns="http://www.w3.org/2000/svg">
<g clip-path="url(#clip0_50_628)">
<path d="M5.14587 15.9082V6.81641H2.87048C1.62048 6.81641 0.599976 7.83691 0.599976 9.0918V22.7295C0.599976 23.9795 1.62048 25 2.87048 25H16.5082C17.7631 25 18.7787 23.9795 18.7787 22.7295V20.459H9.69177C7.18201 20.4541 5.14587 18.418 5.14587 15.9082ZM23.3295 0H9.69177C8.43689 0 7.42126 1.02051 7.42126 2.27051V15.9082C7.42126 17.1631 8.44177 18.1787 9.69177 18.1787H23.3295C24.5844 18.1787 25.6 17.1582 25.6 15.9082V2.27051C25.6 1.02051 24.5795 0 23.3295 0ZM22.1918 10.2295H17.6459V14.7754H15.3754V10.2295H10.8295V7.95898H15.3754V3.4082H17.6459V7.9541H22.1918V10.2295Z" fill="#1EB7E8"/>
</g>
<defs>
<clipPath id="clip0_50_628">
<rect width="25" height="25" fill="white" transform="translate(0.599976)"/>
</clipPath>
</defs>
</svg>
