<svg width="15" height="15" viewBox="0 0 15 15" fill="none" xmlns="http://www.w3.org/2000/svg">
<path d="M7.5 9.6875C8.11292 9.6875 8.63083 9.47625 9.05375 9.05375C9.47625 8.63042 9.6875 8.1125 9.6875 7.5C9.6875 6.88708 9.47625 6.36917 9.05375 5.94625C8.63042 5.52375 8.1125 5.3125 7.5 5.3125C6.88708 5.3125 6.36917 5.52375 5.94625 5.94625C5.52375 6.36958 5.3125 6.8875 5.3125 7.5C5.3125 8.11292 5.52375 8.63083 5.94625 9.05375C6.36958 9.47625 6.8875 9.6875 7.5 9.6875ZM7.5 8.125C7.32292 8.125 7.17458 8.065 7.055 7.945C6.93542 7.825 6.87542 7.67667 6.875 7.5C6.875 7.32292 6.935 7.17458 7.055 7.055C7.175 6.93542 7.32333 6.87542 7.5 6.875C7.67708 6.875 7.82563 6.935 7.94563 7.055C8.06563 7.175 8.12542 7.32333 8.125 7.5C8.125 7.67708 8.065 7.82563 7.945 7.94563C7.825 8.06563 7.67667 8.12542 7.5 8.125ZM7.50187 13.125C6.72438 13.125 5.99312 12.9775 5.30813 12.6825C4.62354 12.3871 4.02792 11.9862 3.52125 11.48C3.01458 10.9742 2.61354 10.3792 2.31813 9.695C2.02271 9.01083 1.875 8.27979 1.875 7.50187C1.875 6.72438 2.0225 5.99312 2.3175 5.30813C2.61292 4.62354 3.01375 4.02792 3.52 3.52125C4.02583 3.01458 4.62083 2.61354 5.305 2.31813C5.98917 2.02271 6.72021 1.875 7.49813 1.875C8.27562 1.875 9.00688 2.0225 9.69187 2.3175C10.3765 2.61292 10.9721 3.01375 11.4787 3.52C11.9854 4.02583 12.3865 4.62083 12.6819 5.305C12.9773 5.98917 13.125 6.72021 13.125 7.49813C13.125 8.27562 12.9775 9.00688 12.6825 9.69187C12.3871 10.3765 11.9862 10.9721 11.48 11.4787C10.9742 11.9854 10.3792 12.3865 9.695 12.6819C9.01083 12.9773 8.27979 13.125 7.50187 13.125ZM7.5 12.5C8.89583 12.5 10.0781 12.0156 11.0469 11.0469C12.0156 10.0781 12.5 8.89583 12.5 7.5C12.5 6.10417 12.0156 4.92187 11.0469 3.95312C10.0781 2.98437 8.89583 2.5 7.5 2.5C6.10417 2.5 4.92187 2.98437 3.95312 3.95312C2.98437 4.92187 2.5 6.10417 2.5 7.5C2.5 8.89583 2.98437 10.0781 3.95312 11.0469C4.92187 12.0156 6.10417 12.5 7.5 12.5Z" fill="#0E9EEF"/>
</svg>
