<svg width="20" height="19" viewBox="0 0 20 19" fill="none" xmlns="http://www.w3.org/2000/svg">
<path d="M10.1 13.1458C11.1215 13.1458 11.9847 12.7937 12.6896 12.0896C13.3937 11.384 13.7458 10.5208 13.7458 9.5C13.7458 8.47847 13.3937 7.61528 12.6896 6.91042C11.984 6.20625 11.1208 5.85417 10.1 5.85417C9.07845 5.85417 8.21525 6.20625 7.51039 6.91042C6.80623 7.61597 6.45414 8.47917 6.45414 9.5C6.45414 10.5215 6.80623 11.3847 7.51039 12.0896C8.21595 12.7937 9.07914 13.1458 10.1 13.1458ZM10.1 10.5417C9.80484 10.5417 9.55761 10.4417 9.35831 10.2417C9.159 10.0417 9.059 9.79444 9.05831 9.5C9.05831 9.20486 9.15831 8.95764 9.35831 8.75833C9.55831 8.55903 9.80553 8.45903 10.1 8.45833C10.3951 8.45833 10.6427 8.55833 10.8427 8.75833C11.0427 8.95833 11.1423 9.20555 11.1416 9.5C11.1416 9.79514 11.0416 10.0427 10.8416 10.2427C10.6416 10.4427 10.3944 10.5424 10.1 10.5417ZM10.1031 18.875C8.80727 18.875 7.58852 18.6292 6.44685 18.1375C5.30588 17.6451 4.31317 16.9771 3.46873 16.1333C2.62428 15.2903 1.95588 14.2986 1.46352 13.1583C0.971156 12.0181 0.724976 10.7997 0.724976 9.50313C0.724976 8.20729 0.970809 6.98854 1.46248 5.84687C1.95484 4.7059 2.62289 3.71319 3.46664 2.86875C4.3097 2.02431 5.30136 1.3559 6.44164 0.863542C7.58192 0.371181 8.80032 0.125 10.0969 0.125C11.3927 0.125 12.6114 0.370833 13.7531 0.8625C14.8941 1.35486 15.8868 2.02292 16.7312 2.86667C17.5757 3.70972 18.2441 4.70139 18.7364 5.84167C19.2288 6.98194 19.475 8.20035 19.475 9.49687C19.475 10.7927 19.2291 12.0115 18.7375 13.1531C18.2451 14.2941 17.5771 15.2868 16.7333 16.1312C15.8903 16.9757 14.8986 17.6441 13.7583 18.1365C12.618 18.6288 11.3996 18.875 10.1031 18.875ZM10.1 17.8333C12.4264 17.8333 14.3968 17.026 16.0114 15.4115C17.626 13.7969 18.4333 11.8264 18.4333 9.5C18.4333 7.17361 17.626 5.20312 16.0114 3.58854C14.3968 1.97396 12.4264 1.16667 10.1 1.16667C7.77359 1.16667 5.8031 1.97396 4.18852 3.58854C2.57393 5.20312 1.76664 7.17361 1.76664 9.5C1.76664 11.8264 2.57393 13.7969 4.18852 15.4115C5.8031 17.026 7.77359 17.8333 10.1 17.8333Z" fill="white"/>
</svg>
