<svg width="23" height="24" viewBox="0 0 23 24" fill="none" xmlns="http://www.w3.org/2000/svg">
<path d="M5.54248 18.0575L13.4275 13.8275L17.6575 5.9425L9.77248 10.1725L5.54248 18.0575ZM11.6 13.25C11.2458 13.25 10.9491 13.13 10.71 12.89C10.4708 12.65 10.3508 12.3533 10.35 12C10.35 11.6458 10.47 11.3492 10.71 11.11C10.95 10.8708 11.2466 10.7508 11.6 10.75C11.9541 10.75 12.2512 10.87 12.4912 11.11C12.7312 11.35 12.8508 11.6467 12.85 12C12.85 12.3542 12.73 12.6513 12.49 12.8913C12.25 13.1313 11.9533 13.2508 11.6 13.25ZM11.6037 23.25C10.0487 23.25 8.58623 22.955 7.21623 22.365C5.84706 21.7742 4.65581 20.9725 3.64248 19.96C2.62914 18.9483 1.82706 17.7583 1.23623 16.39C0.645392 15.0217 0.349976 13.5596 0.349976 12.0037C0.349976 10.4488 0.644976 8.98625 1.23498 7.61625C1.82581 6.24708 2.62748 5.05583 3.63998 4.0425C4.65164 3.02917 5.84164 2.22708 7.20998 1.63625C8.57831 1.04542 10.0404 0.75 11.5962 0.75C13.1512 0.75 14.6137 1.045 15.9837 1.635C17.3529 2.22583 18.5441 3.0275 19.5575 4.04C20.5708 5.05167 21.3729 6.24167 21.9637 7.61C22.5546 8.97833 22.85 10.4404 22.85 11.9963C22.85 13.5512 22.555 15.0138 21.965 16.3837C21.3741 17.7529 20.5725 18.9442 19.56 19.9575C18.5483 20.9708 17.3583 21.7729 15.99 22.3638C14.6216 22.9546 13.1596 23.25 11.6037 23.25ZM11.6 22C14.3916 22 16.7562 21.0312 18.6937 19.0938C20.6312 17.1562 21.6 14.7917 21.6 12C21.6 9.20833 20.6312 6.84375 18.6937 4.90625C16.7562 2.96875 14.3916 2 11.6 2C8.80831 2 6.44373 2.96875 4.50623 4.90625C2.56873 6.84375 1.59998 9.20833 1.59998 12C1.59998 14.7917 2.56873 17.1562 4.50623 19.0938C6.44373 21.0312 8.80831 22 11.6 22Z" fill="white"/>
</svg>
