<svg width="24" height="24" viewBox="0 0 24 24" fill="none" xmlns="http://www.w3.org/2000/svg">
<g clip-path="url(#clip0_11_163)">
<path d="M23.4059 10.1507L23.2848 9.63696H12.1184V14.363H18.7902C18.0975 17.6523 14.8832 19.3837 12.2577 19.3837C10.3473 19.3837 8.33357 18.5802 7.00071 17.2886C6.2975 16.5962 5.73774 15.772 5.3535 14.863C4.96925 13.9541 4.76805 12.9782 4.76143 11.9914C4.76143 10.0007 5.65607 8.00946 6.95786 6.69964C8.25964 5.38982 10.2257 4.65696 12.1805 4.65696C14.4193 4.65696 16.0238 5.84571 16.6238 6.38786L19.9821 3.04714C18.997 2.18143 16.2905 0 12.0723 0C8.81786 0 5.69732 1.24661 3.41625 3.52018C1.16518 5.75893 0 8.99625 0 12C0 15.0037 1.1025 18.0793 3.28393 20.3357C5.61482 22.7421 8.91589 24 12.315 24C15.4077 24 18.3391 22.7882 20.4284 20.5896C22.4823 18.4254 23.5446 15.4307 23.5446 12.2914C23.5446 10.9698 23.4118 10.185 23.4059 10.1507Z" fill="#EE10B0"/>
</g>
<defs>
<clipPath id="clip0_11_163">
<rect width="24" height="24" fill="white"/>
</clipPath>
</defs>
</svg>
