<svg width="26" height="25" viewBox="0 0 26 25" fill="none" xmlns="http://www.w3.org/2000/svg">
<path d="M17.9828 3.32031C15.932 3.32031 14.1488 4.24512 13.1 5.79492C12.0511 4.24512 10.2679 3.32031 8.21716 3.32031C6.66372 3.32212 5.17441 3.94003 4.07596 5.03848C2.9775 6.13694 2.3596 7.62624 2.35779 9.17969C2.35779 12.0312 4.13513 14.999 7.64099 17.999C9.24748 19.3679 10.9828 20.578 12.8226 21.6123C12.9079 21.6581 13.0032 21.6821 13.1 21.6821C13.1968 21.6821 13.2921 21.6581 13.3773 21.6123C15.2171 20.578 16.9525 19.3679 18.559 17.999C22.0648 14.999 23.8422 12.0312 23.8422 9.17969C23.8404 7.62624 23.2224 6.13694 22.124 5.03848C21.0255 3.94003 19.5362 3.32212 17.9828 3.32031ZM13.1 20.4209C11.4974 19.4961 3.52966 14.6211 3.52966 9.17969C3.53096 7.93688 4.02523 6.74535 4.90403 5.86655C5.78282 4.98776 6.97436 4.49348 8.21716 4.49219C10.1976 4.49219 11.8607 5.5498 12.558 7.25293C12.6021 7.3604 12.6772 7.45231 12.7737 7.517C12.8702 7.58169 12.9838 7.61623 13.1 7.61623C13.2162 7.61623 13.3297 7.58169 13.4262 7.517C13.5227 7.45231 13.5978 7.3604 13.642 7.25293C14.3392 5.5498 16.0023 4.49219 17.9828 4.49219C19.2256 4.49348 20.4171 4.98776 21.2959 5.86655C22.1747 6.74535 22.669 7.93688 22.6703 9.17969C22.6703 14.6211 14.7025 19.4961 13.1 20.4209Z" fill="white"/>
</svg>
