<svg width="28" height="27" viewBox="0 0 28 27" fill="none" xmlns="http://www.w3.org/2000/svg">
<path d="M1.59998 13.755C1.59998 10.8938 1.59998 9.46375 2.24998 8.27875C2.89748 7.0925 4.08373 6.3575 6.45498 4.885L8.95498 3.33375C11.4612 1.7775 12.715 1 14.1 1C15.485 1 16.7375 1.7775 19.245 3.33375L21.745 4.885C24.1162 6.3575 25.3025 7.0925 25.9512 8.27875C26.6 9.46375 26.6 10.8937 26.6 13.7538V15.6563C26.6 20.5313 26.6 22.97 25.135 24.485C23.6712 26 21.3137 26 16.6 26H11.6C6.88623 26 4.52873 26 3.06498 24.485C1.59998 22.97 1.59998 20.5325 1.59998 15.6563V13.755Z" stroke="white" stroke-width="1.5"/>
<path d="M14.1 17.25V21" stroke="white" stroke-width="1.5" stroke-linecap="round"/>
</svg>
