<svg width="13" height="13" viewBox="0 0 13 13" fill="none" xmlns="http://www.w3.org/2000/svg">
<path d="M12.125 0.875V8.6875C12.125 9.26766 11.8945 9.82406 11.4843 10.2343C11.0741 10.6445 10.5177 10.875 9.9375 10.875C9.35734 10.875 8.80094 10.6445 8.3907 10.2343C7.98047 9.82406 7.75 9.26766 7.75 8.6875C7.75 8.10734 7.98047 7.55094 8.3907 7.1407C8.80094 6.73047 9.35734 6.5 9.9375 6.5C10.275 6.5 10.5938 6.575 10.875 6.7125V3.04375L4.625 4.375V9.9375C4.625 10.5177 4.39453 11.0741 3.9843 11.4843C3.57406 11.8945 3.01766 12.125 2.4375 12.125C1.85734 12.125 1.30094 11.8945 0.890704 11.4843C0.480468 11.0741 0.25 10.5177 0.25 9.9375C0.25 9.35734 0.480468 8.80094 0.890704 8.3907C1.30094 7.98047 1.85734 7.75 2.4375 7.75C2.775 7.75 3.09375 7.825 3.375 7.9625V2.75L12.125 0.875Z" fill="#EE10B0"/>
</svg>
