<svg width="26" height="25" viewBox="0 0 26 25" fill="none" xmlns="http://www.w3.org/2000/svg">
<path d="M3.72498 6.25C3.72498 6.0428 3.80729 5.84409 3.9538 5.69757C4.10031 5.55106 4.29903 5.46875 4.50623 5.46875H21.6937C21.9009 5.46875 22.0996 5.55106 22.2462 5.69757C22.3927 5.84409 22.475 6.0428 22.475 6.25C22.475 6.4572 22.3927 6.65591 22.2462 6.80243C22.0996 6.94894 21.9009 7.03125 21.6937 7.03125H4.50623C4.29903 7.03125 4.10031 6.94894 3.9538 6.80243C3.80729 6.65591 3.72498 6.4572 3.72498 6.25ZM4.50623 13.2812H16.225C16.4322 13.2812 16.6309 13.1989 16.7774 13.0524C16.9239 12.9059 17.0062 12.7072 17.0062 12.5C17.0062 12.2928 16.9239 12.0941 16.7774 11.9476C16.6309 11.8011 16.4322 11.7188 16.225 11.7188H4.50623C4.29903 11.7188 4.10031 11.8011 3.9538 11.9476C3.80729 12.0941 3.72498 12.2928 3.72498 12.5C3.72498 12.7072 3.80729 12.9059 3.9538 13.0524C4.10031 13.1989 4.29903 13.2812 4.50623 13.2812ZM11.5375 17.9688H4.50623C4.29903 17.9688 4.10031 18.0511 3.9538 18.1976C3.80729 18.3441 3.72498 18.5428 3.72498 18.75C3.72498 18.9572 3.80729 19.1559 3.9538 19.3024C4.10031 19.4489 4.29903 19.5312 4.50623 19.5312H11.5375C11.7447 19.5312 11.9434 19.4489 12.0899 19.3024C12.2364 19.1559 12.3187 18.9572 12.3187 18.75C12.3187 18.5428 12.2364 18.3441 12.0899 18.1976C11.9434 18.0511 11.7447 17.9688 11.5375 17.9688ZM24.7855 12.334C24.756 12.4326 24.7073 12.5245 24.6422 12.6043C24.5771 12.684 24.4968 12.7501 24.4061 12.7988C24.3153 12.8474 24.2159 12.8776 24.1134 12.8877C24.0109 12.8978 23.9074 12.8875 23.809 12.8574L20.9125 11.9873V18.75C20.9136 19.4393 20.6871 20.1097 20.2682 20.6572C19.8492 21.2046 19.2613 21.5984 18.5956 21.7775C17.93 21.9566 17.2238 21.9109 16.5868 21.6475C15.9497 21.3841 15.4175 20.9178 15.0726 20.321C14.7277 19.7241 14.5895 19.0301 14.6795 18.3466C14.7694 17.6632 15.0825 17.0286 15.57 16.5413C16.0576 16.054 16.6924 15.7413 17.3759 15.6517C18.0594 15.5621 18.7533 15.7007 19.35 16.0459V10.9375C19.35 10.8157 19.3785 10.6956 19.4332 10.5868C19.4879 10.478 19.5673 10.3835 19.665 10.3108C19.7627 10.2382 19.8761 10.1893 19.996 10.1683C20.116 10.1472 20.2392 10.1544 20.3558 10.1895L24.2621 11.3613C24.4604 11.4209 24.627 11.5569 24.7252 11.7393C24.8233 11.9217 24.845 12.1356 24.7855 12.334ZM19.35 18.75C19.35 18.441 19.2583 18.1389 19.0866 17.8819C18.915 17.625 18.6709 17.4247 18.3854 17.3064C18.0999 17.1882 17.7857 17.1572 17.4826 17.2175C17.1796 17.2778 16.9011 17.4266 16.6826 17.6451C16.4641 17.8637 16.3153 18.1421 16.255 18.4452C16.1947 18.7483 16.2257 19.0624 16.3439 19.3479C16.4622 19.6335 16.6624 19.8775 16.9194 20.0492C17.1763 20.2209 17.4784 20.3125 17.7875 20.3125C18.2019 20.3125 18.5993 20.1479 18.8923 19.8549C19.1854 19.5618 19.35 19.1644 19.35 18.75Z" fill="white"/>
</svg>
