<svg width="26" height="25" viewBox="0 0 26 25" fill="none" xmlns="http://www.w3.org/2000/svg">
<path d="M9.05312 16.5469C9.58399 17.0791 10.2148 17.5011 10.9093 17.7888C11.6038 18.0764 12.3483 18.2239 13.1 18.2229C16.2609 18.2229 18.8229 15.6604 18.8229 12.5C18.8229 9.3396 16.2604 6.7771 13.1 6.7771C9.93958 6.7771 7.37708 9.3396 7.37708 12.5V13.6141" stroke="white" stroke-linecap="round" stroke-linejoin="round"/>
<path d="M6.36194 12.5989L7.37704 13.614L8.39163 12.5989M13.1 8.56976V12.5L14.9005 14.3005" stroke="white" stroke-linecap="round" stroke-linejoin="round"/>
<path d="M13.1 23.6979C19.2844 23.6979 24.2979 18.6844 24.2979 12.5C24.2979 6.31554 19.2844 1.30206 13.1 1.30206C6.91552 1.30206 1.90204 6.31554 1.90204 12.5C1.90204 18.6844 6.91552 23.6979 13.1 23.6979Z" stroke="white" stroke-linecap="round" stroke-linejoin="round"/>
</svg>
