<svg width="25" height="25" viewBox="0 0 25 25" fill="none" xmlns="http://www.w3.org/2000/svg">
<path d="M17.3828 3.32031C15.332 3.32031 13.5488 4.24512 12.5 5.79492C11.4512 4.24512 9.66797 3.32031 7.61719 3.32031C6.06374 3.32212 4.57444 3.94003 3.47598 5.03848C2.37753 6.13694 1.75962 7.62624 1.75781 9.17969C1.75781 12.0312 3.53516 14.999 7.04102 17.999C8.64751 19.3679 10.3828 20.578 12.2227 21.6123C12.3079 21.6581 12.4032 21.6821 12.5 21.6821C12.5968 21.6821 12.6921 21.6581 12.7773 21.6123C14.6172 20.578 16.3525 19.3679 17.959 17.999C21.4648 14.999 23.2422 12.0312 23.2422 9.17969C23.2404 7.62624 22.6225 6.13694 21.524 5.03848C20.4256 3.94003 18.9363 3.32212 17.3828 3.32031ZM12.5 20.4209C10.8975 19.4961 2.92969 14.6211 2.92969 9.17969C2.93098 7.93688 3.42526 6.74535 4.30405 5.86655C5.18285 4.98776 6.37438 4.49348 7.61719 4.49219C9.59766 4.49219 11.2607 5.5498 11.958 7.25293C12.0022 7.3604 12.0772 7.45231 12.1738 7.517C12.2703 7.58169 12.3838 7.61623 12.5 7.61623C12.6162 7.61623 12.7297 7.58169 12.8262 7.517C12.9228 7.45231 12.9978 7.3604 13.042 7.25293C13.7393 5.5498 15.4023 4.49219 17.3828 4.49219C18.6256 4.49348 19.8172 4.98776 20.6959 5.86655C21.5747 6.74535 22.069 7.93688 22.0703 9.17969C22.0703 14.6211 14.1025 19.4961 12.5 20.4209Z" fill="#EE10B0"/>
</svg>
