<svg width="15" height="15" viewBox="0 0 15 15" fill="none" xmlns="http://www.w3.org/2000/svg">
<path d="M1.875 3.75C1.875 3.62568 1.92439 3.50645 2.01229 3.41854C2.1002 3.33064 2.21943 3.28125 2.34375 3.28125H12.6562C12.7806 3.28125 12.8998 3.33064 12.9877 3.41854C13.0756 3.50645 13.125 3.62568 13.125 3.75C13.125 3.87432 13.0756 3.99355 12.9877 4.08146C12.8998 4.16936 12.7806 4.21875 12.6562 4.21875H2.34375C2.21943 4.21875 2.1002 4.16936 2.01229 4.08146C1.92439 3.99355 1.875 3.87432 1.875 3.75ZM2.34375 7.96875H9.375C9.49932 7.96875 9.61855 7.91936 9.70646 7.83146C9.79436 7.74355 9.84375 7.62432 9.84375 7.5C9.84375 7.37568 9.79436 7.25645 9.70646 7.16854C9.61855 7.08064 9.49932 7.03125 9.375 7.03125H2.34375C2.21943 7.03125 2.1002 7.08064 2.01229 7.16854C1.92439 7.25645 1.875 7.37568 1.875 7.5C1.875 7.62432 1.92439 7.74355 2.01229 7.83146C2.1002 7.91936 2.21943 7.96875 2.34375 7.96875ZM6.5625 10.7812H2.34375C2.21943 10.7812 2.1002 10.8306 2.01229 10.9185C1.92439 11.0065 1.875 11.1257 1.875 11.25C1.875 11.3743 1.92439 11.4935 2.01229 11.5815C2.1002 11.6694 2.21943 11.7187 2.34375 11.7187H6.5625C6.68682 11.7187 6.80605 11.6694 6.89396 11.5815C6.98186 11.4935 7.03125 11.3743 7.03125 11.25C7.03125 11.1257 6.98186 11.0065 6.89396 10.9185C6.80605 10.8306 6.68682 10.7812 6.5625 10.7812ZM14.5113 7.40039C14.4936 7.45958 14.4644 7.51469 14.4253 7.56255C14.3863 7.61041 14.3381 7.65008 14.2837 7.67926C14.2292 7.70845 14.1695 7.72658 14.108 7.73262C14.0466 7.73866 13.9845 7.73249 13.9254 7.71445L12.1875 7.19238V11.25C12.1882 11.6636 12.0523 12.0658 11.8009 12.3943C11.5496 12.7228 11.1968 12.959 10.7974 13.0665C10.398 13.1739 9.97431 13.1465 9.59208 12.9885C9.20986 12.8305 8.8905 12.5507 8.68357 12.1926C8.47665 11.8345 8.39373 11.4181 8.4477 11.008C8.50167 10.5979 8.6895 10.2172 8.98204 9.92477C9.27457 9.63239 9.65545 9.44477 10.0655 9.39102C10.4756 9.33728 10.892 9.42042 11.25 9.62754V6.5625C11.25 6.48943 11.2671 6.41738 11.2999 6.35209C11.3328 6.28681 11.3804 6.2301 11.439 6.1865C11.4977 6.14289 11.5657 6.1136 11.6376 6.10095C11.7096 6.08831 11.7835 6.09266 11.8535 6.11367L14.1973 6.8168C14.3163 6.85257 14.4162 6.93414 14.4751 7.04357C14.534 7.15301 14.547 7.28135 14.5113 7.40039ZM11.25 11.25C11.25 11.0646 11.195 10.8833 11.092 10.7292C10.989 10.575 10.8426 10.4548 10.6713 10.3839C10.5 10.3129 10.3115 10.2943 10.1296 10.3305C9.94775 10.3667 9.7807 10.456 9.64959 10.5871C9.51848 10.7182 9.42919 10.8852 9.39301 11.0671C9.35684 11.249 9.37541 11.4375 9.44636 11.6088C9.51732 11.7801 9.63748 11.9265 9.79165 12.0295C9.94582 12.1325 10.1271 12.1875 10.3125 12.1875C10.5611 12.1875 10.7996 12.0887 10.9754 11.9129C11.1512 11.7371 11.25 11.4986 11.25 11.25Z" fill="#EE10B0"/>
</svg>
