<svg width="25" height="25" viewBox="0 0 25 25" fill="none" xmlns="http://www.w3.org/2000/svg">
<path opacity="0.6" fill-rule="evenodd" clip-rule="evenodd" d="M10.0156 16.0896C11.4196 17.2114 13.1999 17.753 14.9907 17.6032C16.7816 17.4534 18.4471 16.6236 19.6453 15.2841C20.8434 13.9447 21.4831 12.1973 21.4332 10.4009C21.3832 8.60445 20.6472 6.89535 19.3765 5.62459C18.1057 4.35384 16.3966 3.61789 14.6002 3.56791C12.8038 3.51792 11.0564 4.15769 9.71695 5.35582C8.3775 6.55394 7.54765 8.21947 7.39785 10.0103C7.24805 11.8012 7.78966 13.5815 8.91145 14.9855L3.54061 20.3552C3.46386 20.4268 3.40229 20.513 3.35959 20.6089C3.31689 20.7047 3.29393 20.8081 3.29208 20.913C3.29023 21.0179 3.30953 21.1221 3.34882 21.2194C3.38811 21.3167 3.44659 21.4051 3.52078 21.4792C3.59497 21.5534 3.68334 21.6119 3.78062 21.6512C3.8779 21.6905 3.98209 21.7098 4.08699 21.7079C4.19189 21.7061 4.29534 21.6831 4.39117 21.6404C4.48701 21.5977 4.57326 21.5362 4.64478 21.4594L10.0156 16.0896ZM18.2719 14.4625C19.0364 13.6979 19.5571 12.7238 19.7682 11.6633C19.9793 10.6029 19.8713 9.50361 19.4578 8.50452C19.0443 7.50542 18.3439 6.65131 17.4452 6.05014C16.5464 5.44897 15.4896 5.12773 14.4084 5.127C13.3271 5.12627 12.2698 5.4461 11.3703 6.04605C10.4707 6.64601 9.7692 7.49917 9.35438 8.49772C8.93956 9.49626 8.83005 10.5954 9.03971 11.6561C9.24937 12.7169 9.76877 13.6917 10.5323 14.4573L10.5375 14.4625L10.5427 14.4667C11.5686 15.4903 12.9589 16.0648 14.4081 16.064C15.8574 16.0632 17.247 15.4872 18.2719 14.4625Z" fill="white"/>
</svg>
